<?xml version="1.0" encoding="UTF-8" standalone="no"?>
<!-- Created with Inkscape (http://www.inkscape.org/) -->

<svg
   xmlns:dc="http://purl.org/dc/elements/1.1/"
   xmlns:cc="http://creativecommons.org/ns#"
   xmlns:rdf="http://www.w3.org/1999/02/22-rdf-syntax-ns#"
   xmlns:svg="http://www.w3.org/2000/svg"
   xmlns="http://www.w3.org/2000/svg"
   xmlns:sodipodi="http://sodipodi.sourceforge.net/DTD/sodipodi-0.dtd"
   xmlns:inkscape="http://www.inkscape.org/namespaces/inkscape"
   width="210mm"
   height="297mm"
   viewBox="0 0 744.09448819 1052.3622047"
   id="svg2"
   version="1.1"
   inkscape:version="0.91 r13725"
   sodipodi:docname="tinder-buttons.svg">
  <defs
     id="defs4" />
  <sodipodi:namedview
     id="base"
     pagecolor="#ffffff"
     bordercolor="#666666"
     borderopacity="1.0"
     inkscape:pageopacity="0.0"
     inkscape:pageshadow="2"
     inkscape:zoom="0.49497475"
     inkscape:cx="19.161432"
     inkscape:cy="774.82213"
     inkscape:document-units="px"
     inkscape:current-layer="layer1"
     showgrid="false"
     inkscape:window-width="1366"
     inkscape:window-height="706"
     inkscape:window-x="-8"
     inkscape:window-y="-8"
     inkscape:window-maximized="1" />
  <metadata
     id="metadata7">
    <rdf:RDF>
      <cc:Work
         rdf:about="">
        <dc:format>image/svg+xml</dc:format>
        <dc:type
           rdf:resource="http://purl.org/dc/dcmitype/StillImage" />
        <dc:title></dc:title>
      </cc:Work>
    </rdf:RDF>
  </metadata>
  <g
     inkscape:label="Ebene 1"
     inkscape:groupmode="layer"
     id="layer1">
    <g
       id="g4234"
       transform="translate(-321.22851,24.243662)"
       inkscape:export-xdpi="90"
       inkscape:export-ydpi="90">
      <path
         style="fill:#1edb87;fill-opacity:1"
         d="m 513.44846,300.8201 c -3.54125,-3.01987 -8.18847,-7.13656 -10.32715,-9.14821 -8.93562,-8.40487 -15.74596,-14.67783 -26.51977,-24.42722 -6.2717,-5.67536 -13.14184,-11.97954 -15.26697,-14.00928 -2.12513,-2.02975 -7.8569,-7.49047 -12.73726,-12.13494 -7.20571,-6.85744 -9.46963,-9.70859 -12.04589,-15.17042 -4.09338,-8.67825 -6.00582,-16.84029 -6.02336,-25.70692 -0.0437,-22.08991 9.17211,-39.88587 25.65576,-49.5419 4.06666,-2.38223 9.55647,-4.69413 12.81566,-5.39702 8.60829,-1.85648 21.38591,-1.64001 27.45171,0.46506 5.59718,1.94245 15.54279,8.35829 20.22568,13.04742 1.71871,1.72102 3.98802,3.01927 5.27757,3.01927 1.34625,0 3.58838,-1.35285 5.53708,-3.34096 5.6256,-5.73936 15.45896,-11.7687 21.47189,-13.16554 3.05764,-0.71031 9.00955,-1.29806 13.22649,-1.30612 10.56846,-0.0202 16.53847,1.848 29.69255,9.29173 4.15286,2.35006 10.7979,10.90708 14.91422,19.2055 4.59527,9.26398 6.54575,19.41015 5.88239,30.59963 -0.85582,14.43622 -6.13617,26.43111 -16.16507,36.72075 -5.45055,5.59226 -15.55041,14.89286 -40.61752,37.40322 -5.45933,4.9025 -13.34699,12.10097 -17.52812,15.99658 -11.15925,10.39721 -14.58199,13.09004 -16.6382,13.09004 -1.01367,0 -4.74043,-2.4708 -8.28169,-5.49067 z"
         id="path4222"
         inkscape:connector-curvature="0" />
      <ellipse
         ry="145.1674"
         rx="145.8259"
         cy="219.25995"
         cx="521.32703"
         id="path3349-3"
         style="fill:none;fill-rule:evenodd;stroke:#c9c9c9;stroke-width:30;stroke-linecap:butt;stroke-linejoin:round;stroke-miterlimit:4;stroke-dasharray:none;stroke-dashoffset:10;stroke-opacity:1" />
    </g>
    <path
       style="fill:#000000"
       d=""
       id="path3381"
       inkscape:connector-curvature="0" />
    <g
       id="g4238"
       transform="translate(258.59905,-138.3909)" />
    <path
       style="fill:#000000"
       d=""
       id="path3379"
       inkscape:connector-curvature="0" />
    <g
       id="g4255"
       transform="translate(297.995,-386.88842)"
       inkscape:export-xdpi="90"
       inkscape:export-ydpi="90">
      <path
         inkscape:connector-curvature="0"
         id="path4246"
         d="m -58.105757,841.51286 c -6.22028,-2.76463 -8.93595,-8.59702 -7.54409,-16.20233 0.56691,-3.09769 4.04215,-6.9693 26.36416,-29.37109 17.43934,-17.50168 25.71118,-26.44181 25.71118,-27.7884 0,-1.34001 -7.95136,-10.01765 -24.4625,-26.69692 -13.45438,-13.59138 -25.2653,-25.97723 -26.2465,-27.5241 -2.06051,-3.24843 -2.35821,-10.07441 -0.59165,-13.56561 0.64445,-1.27359 2.59905,-3.27749 4.34357,-4.45313 3.68641,-2.48426 10.04073,-2.85779 13.95676,-0.82042 1.39236,0.72439 13.82604,12.74783 27.63039,26.71875 13.8043505,13.97091 25.7544305,25.40166 26.5557405,25.40166 0.8013,0 11.8662095,-10.59408 24.5886795,-23.54239 12.72246,-12.94832 24.98539,-24.97175 27.25095,-26.71875 3.31536,-2.55652 4.96188,-3.17568 8.4375,-3.17286 2.62755,0.002 5.49345,0.72003 7.31967,1.83355 5.63464,3.43563 7.8098,11.48232 4.70769,17.41541 -0.79908,1.52834 -12.66911,14.14761 -26.37783,28.04283 -15.73771,15.9518 -24.92497,25.94938 -24.92497,27.12338 0,1.18038 9.14947,11.04322 25.05625,27.00985 13.78094,13.83278 25.56492,26.1213 26.18659,27.30782 1.20597,2.30168 1.63866,5.16305 1.40296,9.27791 -0.19221,3.35564 -5.05444,8.79142 -9.04052,10.10694 -1.78142,0.58793 -4.74535,0.76572 -6.75002,0.4049 -3.11119,-0.55998 -6.97792,-4.02684 -29.86007,-26.77219 -16.56122,-16.46221 -26.9687995,-26.1289 -28.1314995,-26.1289 -1.1677,0 -11.13938,9.33093 -27.1514505,25.40676 -13.91829,13.97372 -26.66353,25.99715 -28.32275,26.71875 -3.71702,1.61653 -6.45237,1.61343 -10.10824,-0.0114 z"
         style="fill:#f74b30;fill-opacity:1"
         transform="translate(258.59905,-138.3909)" />
      <ellipse
         ry="145.1674"
         rx="145.8259"
         cy="631.1286"
         cx="266.6803"
         id="path3349-3-2"
         style="fill:none;fill-rule:evenodd;stroke:#c9c9c9;stroke-width:30;stroke-linecap:butt;stroke-linejoin:round;stroke-miterlimit:4;stroke-dasharray:none;stroke-dashoffset:10;stroke-opacity:1" />
    </g>
  </g>
</svg>
